<svg width="543" height="545" viewBox="0 0 543 545" fill="none" xmlns="http://www.w3.org/2000/svg">
<g clip-path="url(#clip0_114_122)">
<path d="M52.2181 459.115L47.4358 440.241C38.9566 436.645 30.2815 433.53 21.4518 430.912L20.8482 439.684L18.4002 430.02C7.44972 426.887 0 425.509 0 425.509C0 425.509 10.0603 463.8 31.168 493.074L55.7603 497.397L36.6552 500.154C39.3104 503.351 42.1637 506.378 45.1985 509.216C75.9006 537.734 110.098 550.819 121.579 538.44C133.06 526.062 117.478 492.91 86.776 464.395C77.2581 455.554 65.3016 448.46 53.3328 442.874L52.2181 459.115Z" fill="#F2F2F2"/>
<path d="M97.698 438.614L103.354 419.984C97.9531 412.52 92.1361 405.366 85.9304 398.557L80.8827 405.754L83.7783 396.215C76.021 387.872 70.3558 382.839 70.3558 382.839C70.3558 382.839 59.1911 420.823 62.1363 456.8L80.9556 473.221L63.1737 465.699C63.7958 469.809 64.6758 473.877 65.8083 477.877C77.3601 518.171 99.8755 547.06 116.097 542.403C132.319 537.746 136.106 501.306 124.554 461.012C120.973 448.521 114.402 436.263 107.041 425.292L97.698 438.614Z" fill="#F2F2F2"/>
<path d="M378.903 129.111H375.919V47.3328C375.919 41.117 374.696 34.962 372.319 29.2193C369.942 23.4766 366.458 18.2587 362.066 13.8635C357.673 9.46821 352.459 5.9817 346.72 3.603C340.981 1.22431 334.831 1.52588e-05 328.619 1.52588e-05H155.475C142.93 1.52588e-05 130.899 4.98685 122.028 13.8635C113.158 22.7401 108.175 34.7794 108.175 47.3328V495.981C108.175 502.197 109.398 508.352 111.775 514.095C114.152 519.837 117.636 525.055 122.028 529.451C126.421 533.846 131.635 537.332 137.374 539.711C143.112 542.09 149.263 543.314 155.475 543.314H328.619C341.164 543.314 353.195 538.327 362.065 529.45C370.935 520.574 375.919 508.535 375.919 495.981V187.322H378.902L378.903 129.111Z" fill="#E6E6E6"/>
<path d="M330.528 12.3098H307.928C308.968 14.8598 309.365 17.6266 309.084 20.3662C308.803 23.1059 307.853 25.7343 306.318 28.02C304.782 30.3057 302.709 32.1785 300.28 33.4734C297.851 34.7683 295.141 35.4455 292.389 35.4454H193.197C190.445 35.4453 187.735 34.7679 185.306 33.4729C182.877 32.1779 180.804 30.3051 179.269 28.0194C177.734 25.7338 176.784 23.1054 176.503 20.3658C176.222 17.6263 176.619 14.8597 177.658 12.3098H156.549C147.181 12.3098 138.196 16.0339 131.572 22.6628C124.948 29.2918 121.226 38.2826 121.226 47.6574V495.654C121.226 505.029 124.948 514.02 131.572 520.649C138.196 527.278 147.181 531.002 156.549 531.002H330.528C339.896 531.002 348.881 527.278 355.505 520.649C362.13 514.02 365.851 505.029 365.851 495.654V495.654V47.6567C365.851 38.282 362.129 29.2914 355.505 22.6626C348.88 16.0338 339.896 12.3098 330.528 12.3098V12.3098Z" fill="white"/>
<path d="M221.369 190.769C221.368 187.638 222.192 184.561 223.757 181.85C225.323 179.138 227.574 176.887 230.285 175.322C227.575 173.756 224.501 172.932 221.372 172.931C218.243 172.931 215.169 173.755 212.459 175.32C209.749 176.886 207.499 179.137 205.934 181.849C204.37 184.561 203.546 187.637 203.546 190.768C203.546 193.899 204.37 196.975 205.934 199.687C207.499 202.398 209.749 204.65 212.459 206.215C215.169 207.781 218.243 208.605 221.372 208.604C224.501 208.604 227.575 207.779 230.285 206.213C227.574 204.65 225.323 202.399 223.758 199.687C222.192 196.976 221.369 193.9 221.369 190.769V190.769Z" fill="#CCCCCC"/>
<path d="M243.777 190.769C243.776 187.638 244.6 184.561 246.165 181.849C247.73 179.138 249.981 176.887 252.692 175.322C249.983 173.756 246.909 172.932 243.78 172.931C240.651 172.931 237.577 173.755 234.867 175.32C232.157 176.886 229.907 179.137 228.342 181.849C226.777 184.561 225.954 187.637 225.954 190.768C225.954 193.899 226.777 196.975 228.342 199.687C229.907 202.398 232.157 204.65 234.867 206.215C237.577 207.781 240.651 208.605 243.78 208.604C246.909 208.604 249.983 207.779 252.692 206.213C249.982 204.65 247.73 202.399 246.165 199.687C244.6 196.976 243.776 193.9 243.777 190.769V190.769Z" fill="#CCCCCC"/>
<path d="M265.675 208.605C275.519 208.605 283.5 200.619 283.5 190.768C283.5 180.917 275.519 172.932 265.675 172.932C255.831 172.932 247.851 180.917 247.851 190.768C247.851 200.619 255.831 208.605 265.675 208.605Z" fill="#00408E"/>
<path d="M295.464 246.479H191.58C190.591 246.478 189.643 246.084 188.944 245.384C188.245 244.684 187.851 243.736 187.85 242.746V138.791C187.851 137.801 188.245 136.852 188.944 136.152C189.643 135.453 190.591 135.059 191.58 135.058H295.464C296.453 135.059 297.401 135.453 298.101 136.152C298.8 136.852 299.193 137.801 299.194 138.791V242.746C299.193 243.736 298.8 244.684 298.101 245.384C297.401 246.084 296.453 246.478 295.464 246.479V246.479ZM191.58 136.552C190.987 136.552 190.418 136.789 189.999 137.208C189.579 137.628 189.343 138.198 189.342 138.791V242.747C189.343 243.34 189.579 243.91 189.999 244.33C190.418 244.749 190.987 244.986 191.58 244.986H295.464C296.057 244.986 296.626 244.749 297.046 244.33C297.466 243.91 297.702 243.34 297.702 242.747V138.791C297.702 138.198 297.466 137.628 297.046 137.208C296.626 136.789 296.057 136.552 295.464 136.552H191.58Z" fill="#CCCCCC"/>
<path d="M318.659 326.165H159.333V327.659H318.659V326.165Z" fill="#CCCCCC"/>
<path d="M164.365 316.842C167.144 316.842 169.397 314.588 169.397 311.807C169.397 309.026 167.144 306.772 164.365 306.772C161.586 306.772 159.333 309.026 159.333 311.807C159.333 314.588 161.586 316.842 164.365 316.842Z" fill="#00408E"/>
<path d="M318.659 376.513H159.333V378.006H318.659V376.513Z" fill="#CCCCCC"/>
<path d="M164.365 367.191C167.144 367.191 169.397 364.936 169.397 362.156C169.397 359.375 167.144 357.121 164.365 357.121C161.586 357.121 159.333 359.375 159.333 362.156C159.333 364.936 161.586 367.191 164.365 367.191Z" fill="#00408E"/>
<path d="M315.744 433.847H265.392C264.523 433.846 263.689 433.5 263.074 432.884C262.459 432.269 262.113 431.435 262.112 430.564V412.904C262.113 412.034 262.459 411.199 263.074 410.584C263.689 409.969 264.523 409.622 265.392 409.621H315.744C316.613 409.622 317.447 409.969 318.062 410.584C318.677 411.199 319.023 412.034 319.024 412.904V430.564C319.023 431.435 318.677 432.269 318.062 432.884C317.447 433.5 316.613 433.846 315.744 433.847V433.847Z" fill="#00408E"/>
<path d="M180.778 316.842C183.557 316.842 185.81 314.588 185.81 311.807C185.81 309.026 183.557 306.772 180.778 306.772C177.999 306.772 175.746 309.026 175.746 311.807C175.746 314.588 177.999 316.842 180.778 316.842Z" fill="#00408E"/>
<path d="M197.191 316.842C199.97 316.842 202.222 314.588 202.222 311.807C202.222 309.026 199.97 306.772 197.191 306.772C194.412 306.772 192.159 309.026 192.159 311.807C192.159 314.588 194.412 316.842 197.191 316.842Z" fill="#00408E"/>
<path d="M180.778 367.191C183.557 367.191 185.81 364.936 185.81 362.156C185.81 359.375 183.557 357.121 180.778 357.121C177.999 357.121 175.746 359.375 175.746 362.156C175.746 364.936 177.999 367.191 180.778 367.191Z" fill="#00408E"/>
<path d="M197.191 367.191C199.97 367.191 202.222 364.936 202.222 362.156C202.222 359.375 199.97 357.121 197.191 357.121C194.412 357.121 192.159 359.375 192.159 362.156C192.159 364.936 194.412 367.191 197.191 367.191Z" fill="#00408E"/>
<path d="M540.972 545H17.5545C16.434 545 15.5264 544.602 15.5264 544.111C15.5264 543.621 16.434 543.222 17.5545 543.222H540.972C542.092 543.222 543 543.62 543 544.111C543 544.602 542.092 545 540.972 545Z" fill="#3F3D56"/>
<path d="M411.654 357.067C412.011 357.231 412.355 357.423 412.682 357.641L445.38 343.676L446.547 335.057L459.612 334.977L458.84 354.745L415.683 366.166C415.592 366.466 415.483 366.761 415.357 367.048C414.733 368.38 413.729 369.498 412.472 370.262C411.216 371.025 409.761 371.4 408.292 371.339C406.823 371.278 405.405 370.785 404.215 369.92C403.026 369.055 402.118 367.857 401.606 366.478C401.094 365.099 401.001 363.599 401.339 362.167C401.676 360.734 402.429 359.434 403.502 358.429C404.576 357.423 405.922 356.757 407.372 356.515C408.823 356.273 410.312 356.465 411.654 357.067V357.067Z" fill="#FFB8B8"/>
<path d="M464.364 536.205H455.426L451.174 501.708L464.365 501.709L464.364 536.205Z" fill="#FFB8B8"/>
<path d="M449.042 533.649H466.278V544.509H438.189C438.189 541.629 439.333 538.867 441.368 536.83C443.403 534.794 446.164 533.649 449.042 533.649Z" fill="#2F2E41"/>
<path d="M499.123 533.678L490.228 534.555L482.616 500.641L495.744 499.347L499.123 533.678Z" fill="#FFB8B8"/>
<path d="M483.625 532.638L500.778 530.947L501.842 541.755L473.888 544.51C473.748 543.091 473.889 541.658 474.303 540.293C474.717 538.928 475.395 537.659 476.299 536.556C477.203 535.454 478.316 534.54 479.572 533.868C480.829 533.196 482.206 532.778 483.625 532.638Z" fill="#2F2E41"/>
<path d="M466.851 298.468C476.74 298.468 484.756 290.446 484.756 280.55C484.756 270.655 476.74 262.633 466.851 262.633C456.962 262.633 448.946 270.655 448.946 280.55C448.946 290.446 456.962 298.468 466.851 298.468Z" fill="#FFB8B8"/>
<path d="M453.429 529.229C452.66 529.231 451.916 528.961 451.328 528.468C450.739 527.974 450.343 527.289 450.21 526.532C445.584 500.834 430.463 416.809 430.101 414.482C430.093 414.428 430.089 414.374 430.09 414.32V408.055C430.089 407.827 430.16 407.604 430.293 407.419L432.291 404.619C432.386 404.485 432.51 404.374 432.655 404.294C432.799 404.215 432.96 404.171 433.125 404.163C444.513 403.629 481.811 402.063 483.613 404.316C485.422 406.58 484.783 413.44 484.636 414.792L484.643 414.933L501.4 522.167C501.531 523.023 501.32 523.895 500.814 524.596C500.307 525.297 499.545 525.77 498.692 525.913L488.226 527.639C487.446 527.764 486.648 527.605 485.976 527.191C485.303 526.777 484.802 526.135 484.562 525.382C481.325 515.032 470.471 480.213 466.709 466.739C466.686 466.654 466.632 466.58 466.558 466.532C466.484 466.483 466.395 466.463 466.308 466.476C466.22 466.488 466.14 466.532 466.082 466.599C466.025 466.666 465.994 466.752 465.995 466.841C466.183 479.684 466.637 512.452 466.793 523.769L466.811 524.988C466.818 525.814 466.515 526.611 465.962 527.224C465.41 527.837 464.648 528.22 463.827 528.298L453.735 529.215C453.632 529.224 453.53 529.229 453.429 529.229Z" fill="#2F2E41"/>
<path d="M455.488 305.513C452.363 307.372 450.493 310.788 449.42 314.264C447.434 320.699 446.238 327.352 445.86 334.077L444.726 354.211L430.688 407.59C442.855 417.891 449.873 415.55 466.25 407.124C482.627 398.697 484.499 409.933 484.499 409.933L487.773 364.515L492.453 314.885C491.402 313.619 490.213 312.475 488.909 311.475C484.584 308.109 479.552 305.77 474.192 304.634C468.833 303.497 463.285 303.592 457.968 304.913L455.488 305.513Z" fill="#00408E"/>
<path d="M450.928 367.847C451.306 367.989 451.672 368.161 452.022 368.361L484.352 352.168L484.889 343.395L498.225 342.475L498.94 362.473L455.735 376.771C455.382 378.285 454.577 379.656 453.427 380.701C452.276 381.746 450.835 382.416 449.295 382.622C447.755 382.827 446.189 382.559 444.805 381.852C443.421 381.145 442.285 380.034 441.548 378.665C440.811 377.296 440.507 375.736 440.678 374.19C440.849 372.645 441.486 371.188 442.504 370.014C443.522 368.839 444.874 368.003 446.379 367.616C447.883 367.229 449.47 367.31 450.928 367.847Z" fill="#FFB8B8"/>
<path d="M492.219 315.112C500.173 317.921 501.574 348.358 501.574 348.358C492.216 343.208 480.986 351.636 480.986 351.636C480.986 351.636 478.647 343.676 475.839 333.375C474.991 330.477 474.89 327.412 475.544 324.465C476.199 321.518 477.588 318.784 479.582 316.519C479.582 316.519 484.264 312.301 492.219 315.112Z" fill="#00408E"/>
<path d="M482.906 285.289C480.675 283.503 477.631 286.749 477.631 286.749L475.846 270.675C475.846 270.675 464.692 272.012 457.553 270.229C450.414 268.446 449.299 276.704 449.299 276.704C448.931 273.368 448.856 270.006 449.076 266.658C449.522 262.639 455.322 258.621 465.584 255.942C475.846 253.262 481.2 264.872 481.2 264.872C488.34 268.443 485.137 287.075 482.906 285.289Z" fill="#2F2E41"/>
</g>
<defs>
<clipPath id="clip0_114_122">
<rect width="543" height="545" fill="white"/>
</clipPath>
</defs>
</svg>
