<?xml version="1.0" encoding="utf-8"?>
<!-- Generator: Adobe Illustrator 26.5.0, SVG Export Plug-In . SVG Version: 6.00 Build 0)  -->
<svg version="1.1" id="Layer_1" xmlns="http://www.w3.org/2000/svg" xmlns:xlink="http://www.w3.org/1999/xlink" x="0px" y="0px"
	 viewBox="0 0 2631.49 2999.91" style="enable-background:new 0 0 2631.49 2999.91;" xml:space="preserve">
<style type="text/css">
	.st0{fill:#FFFFFF;}
</style>
<path class="st0" d="M2631.49,2187.43V812.48c0-44.66-23.82-85.92-62.5-108.25L1378.25,16.75c-38.68-22.33-86.32-22.33-125,0
	L62.5,704.22C23.82,726.55,0,767.82,0,812.48v1374.96c0,44.66,23.82,85.92,62.5,108.25l1190.75,687.48
	c38.68,22.33,86.32,22.33,125,0l1190.75-687.48C2607.67,2273.36,2631.49,2232.09,2631.49,2187.43z"/>
<path d="M2303.19,870.58l-935.51-540.12c-32.03-18.49-71.83-18.5-103.87,0L328.3,870.58c-32.04,18.49-51.94,52.96-51.94,89.95
	v1080.23c0,36.99,19.9,71.46,51.94,89.96l935.51,540.12c15.72,9.08,33.68,13.88,51.94,13.88c18.25,0,36.21-4.8,51.94-13.88
	l935.51-540.12c32.04-18.5,51.94-52.97,51.94-89.96V960.53C2355.13,923.54,2335.23,889.07,2303.19,870.58z M2285.88,980.52v1040.25
	l-365.52-211.03v-618.19L2285.88,980.52z M1281.12,1520.64v578.21l-500.74-289.1v-578.21L1281.12,1520.64z M1281.12,2178.81v422.06
	l-898.9-518.98l363.62-212.13L1281.12,2178.81z M380.24,920.55l900.88-520.13v422.06l-535.37,309.1L380.24,920.55z M1315.75,882.46
	l500.74,289.1l-500.74,289.1L815,1171.56L1315.75,882.46z M1350.37,822.49V400.43l900.88,520.12l-365.52,211.03L1350.37,822.49z
	 M1350.37,2178.81l535.37-309.09l365.52,211.03l-900.88,520.13V2178.81z M1350.37,2098.85v-578.21l500.74-289.1v578.21
	L1350.37,2098.85z M711.13,1191.55v618.29l-365.52,213.23V980.52L711.13,1191.55z"/>
</svg>
