<?xml version="1.0" encoding="utf-8"?>
<!-- Generator: Adobe Illustrator 26.5.0, SVG Export Plug-In . SVG Version: 6.00 Build 0)  -->
<svg version="1.1" id="Layer_1" xmlns="http://www.w3.org/2000/svg" xmlns:xlink="http://www.w3.org/1999/xlink" x="0px" y="0px"
	 viewBox="0 0 2631.49 3000" style="enable-background:new 0 0 2631.49 3000;" xml:space="preserve">
<style type="text/css">
	.st0{fill:#FFFFFF;}
</style>
<g>
	<polygon class="st0" points="795.38,1801.13 1266.12,2072.91 1266.12,1529.34 795.38,1257.56 	"/>
	<polygon class="st0" points="412.11,2081.87 1266.12,2574.93 1266.12,2187.51 745.88,1887.15 	"/>
	<polygon class="st0" points="696.13,1200.26 360.62,1006.55 360.62,1997 696.13,1801.28 	"/>
	<polygon class="st0" points="2221.26,920.6 1365.37,426.45 1365.37,813.87 1885.74,1114.31 	"/>
	<polygon class="st0" points="1266.12,813.87 1266.12,426.45 410.24,920.6 745.76,1114.31 	"/>
	<polygon class="st0" points="1365.37,2072.91 1836.11,1801.13 1836.11,1257.56 1365.37,1529.34 	"/>
	<polygon class="st0" points="1935.36,1801.13 2270.88,1994.84 2270.88,1006.55 1935.36,1200.26 	"/>
	<polygon class="st0" points="1315.75,899.82 845,1171.61 1315.75,1443.39 1786.49,1171.61 	"/>
	<path class="st0" d="M2568.99,704.27L1378.25,16.79c-38.68-22.33-86.32-22.33-125,0L62.5,704.27C23.82,726.6,0,767.86,0,812.52
		v1374.96c0,44.66,23.82,85.92,62.5,108.25l1190.75,687.48c38.68,22.33,86.32,22.33,125,0l1190.75-687.48
		c38.68-22.33,62.5-63.6,62.5-108.25V812.52C2631.49,767.86,2607.67,726.6,2568.99,704.27z M2370.13,2040.81
		c0,42.33-22.77,81.78-59.44,102.95l-935.51,540.12c-18,10.39-38.56,15.89-59.44,15.89c-20.88,0-41.43-5.49-59.44-15.89
		L320.8,2143.75c-36.66-21.17-59.44-60.61-59.44-102.95V960.58c0-42.33,22.77-81.78,59.44-102.95l935.51-540.12
		c36.66-21.16,82.21-21.17,118.87,0l935.51,540.12c36.66,21.17,59.44,60.61,59.44,102.95V2040.81z"/>
	<polygon class="st0" points="1365.37,2187.51 1365.37,2574.93 2221.26,2080.79 1885.74,1887.08 	"/>
</g>
</svg>
