<?xml version="1.0" standalone="no"?>
<!DOCTYPE svg PUBLIC "-//W3C//DTD SVG 20010904//EN"
 "http://www.w3.org/TR/2001/REC-SVG-20010904/DTD/svg10.dtd">
<svg version="1.0" xmlns="http://www.w3.org/2000/svg"
 width="3000.000000pt" height="3000.000000pt" viewBox="0 0 3000.000000 3000.000000"
 preserveAspectRatio="xMidYMid meet">
<metadata>
Created by potrace 1.14, written by Peter Selinger 2001-2017
</metadata>
<g transform="translate(0.000000,3000.000000) scale(0.100000,-0.100000)"
fill="#000000" stroke="none">
<path d="M14804 29984 c-148 -24 -318 -88 -459 -173 -27 -17 -66 -39 -85 -49
-19 -10 -75 -43 -125 -72 -49 -29 -108 -63 -130 -75 -22 -13 -80 -46 -130 -75
-49 -29 -106 -62 -125 -73 -19 -11 -48 -28 -65 -38 -16 -10 -41 -24 -55 -32
-14 -7 -117 -67 -230 -132 -221 -128 -368 -212 -440 -252 -25 -14 -49 -29 -55
-33 -5 -5 -37 -23 -70 -40 -33 -18 -67 -38 -75 -44 -8 -7 -40 -25 -70 -40 -30
-16 -62 -35 -71 -42 -8 -8 -18 -14 -21 -14 -3 0 -84 -46 -179 -101 -96 -56
-196 -114 -224 -129 -27 -15 -117 -67 -200 -115 -82 -48 -166 -97 -185 -107
-19 -11 -91 -53 -160 -93 -136 -79 -488 -282 -559 -323 -25 -14 -68 -38 -95
-55 -28 -16 -64 -37 -81 -47 -98 -56 -592 -340 -653 -377 -41 -24 -76 -43 -78
-43 -2 0 -21 -11 -42 -24 -20 -13 -185 -109 -367 -214 -181 -104 -346 -199
-365 -210 -33 -19 -107 -62 -190 -109 -19 -11 -127 -74 -240 -140 -113 -65
-212 -122 -220 -126 -8 -4 -30 -16 -49 -28 -19 -11 -93 -54 -165 -96 -72 -41
-144 -83 -161 -93 -16 -10 -118 -68 -225 -130 -107 -62 -208 -120 -225 -130
-16 -9 -106 -61 -200 -115 -93 -54 -224 -129 -290 -168 -66 -38 -139 -80 -162
-93 -23 -13 -92 -53 -153 -89 -61 -36 -115 -65 -121 -65 -5 0 -9 -4 -9 -10 0
-5 -4 -10 -9 -10 -8 0 -123 -65 -645 -368 -72 -41 -144 -82 -160 -92 -17 -10
-58 -33 -91 -52 -33 -19 -181 -105 -330 -190 -148 -86 -332 -192 -409 -237
-76 -44 -140 -81 -142 -81 -3 0 -23 -12 -47 -27 -23 -14 -67 -40 -97 -56 -30
-16 -62 -35 -70 -41 -8 -6 -28 -19 -45 -28 -41 -22 -779 -447 -1065 -613 -326
-189 -423 -245 -428 -245 -2 0 -16 -8 -30 -19 -15 -10 -49 -31 -77 -46 -27
-16 -74 -42 -104 -59 -29 -17 -70 -40 -90 -52 -302 -172 -722 -418 -780 -457
-255 -176 -450 -477 -507 -784 -2 -13 -7 -35 -11 -50 -10 -42 -12 -14028 -2
-14093 5 -30 11 -68 14 -85 36 -222 171 -473 348 -648 109 -107 185 -159 467
-319 61 -35 500 -288 625 -361 66 -38 134 -77 150 -87 30 -17 662 -381 722
-416 18 -11 115 -66 215 -124 223 -128 200 -115 300 -174 46 -26 103 -60 128
-73 25 -14 86 -49 135 -78 50 -29 135 -78 190 -110 552 -319 666 -385 705
-407 25 -14 158 -90 295 -170 314 -182 560 -325 603 -349 96 -55 183 -106 237
-137 33 -19 78 -45 100 -57 22 -12 149 -86 283 -164 134 -77 247 -141 253
-141 5 0 9 -4 9 -10 0 -5 4 -10 9 -10 5 0 129 -70 276 -155 147 -85 270 -155
272 -155 2 0 32 -17 66 -38 88 -53 95 -57 162 -95 94 -53 109 -62 480 -277
193 -111 379 -219 415 -240 56 -33 497 -288 810 -468 52 -30 109 -62 125 -72
255 -147 541 -312 758 -436 72 -42 184 -107 247 -144 63 -37 205 -119 315
-182 110 -63 259 -149 332 -191 72 -42 147 -85 165 -95 46 -26 280 -160 298
-171 8 -5 128 -75 265 -154 138 -80 381 -220 540 -313 160 -92 305 -175 323
-185 18 -10 38 -22 45 -27 7 -5 37 -23 67 -39 30 -17 90 -51 133 -77 43 -25
79 -46 81 -46 2 0 62 -34 132 -76 113 -67 171 -100 314 -181 19 -11 60 -35 90
-53 284 -168 588 -216 940 -147 48 9 209 66 257 91 27 13 190 106 363 206 173
101 335 194 360 208 25 14 110 63 190 109 80 46 154 89 165 95 11 7 74 43 140
82 66 38 134 77 150 85 17 9 32 19 33 24 2 4 8 7 12 7 5 0 33 14 62 32 29 17
78 45 108 63 30 17 132 76 225 130 94 54 226 130 295 170 199 115 582 336 615
355 191 110 316 182 450 260 88 51 180 104 204 118 25 14 68 38 95 55 28 16
65 38 83 48 34 19 351 202 553 319 69 40 141 81 160 92 84 48 505 291 609 352
62 36 115 66 117 66 3 0 21 11 42 24 20 12 114 67 207 121 94 54 240 139 325
188 85 49 171 98 190 109 61 35 194 113 211 123 9 6 43 25 75 42 32 18 82 47
109 63 28 17 64 37 80 46 17 8 59 32 94 54 34 22 65 40 66 40 2 0 55 30 117
66 62 37 129 76 148 87 82 46 309 177 341 196 19 11 50 29 70 40 31 17 465
268 659 381 36 21 135 79 222 129 86 50 159 91 162 91 4 0 19 8 34 19 49 34
202 121 212 121 6 0 10 4 10 8 0 4 12 13 28 19 15 7 41 20 57 30 17 10 75 44
130 76 55 32 107 62 115 67 31 18 142 82 365 210 127 73 241 140 255 148 14 9
27 17 30 17 3 0 32 17 65 37 33 20 206 120 385 223 179 103 340 196 358 206
17 11 49 29 70 40 20 12 120 70 222 129 102 59 262 151 355 205 94 54 240 138
325 188 85 49 171 98 190 109 19 11 125 72 235 136 110 63 238 137 285 164 47
26 92 53 100 58 8 5 40 23 70 41 30 17 67 41 82 53 14 11 41 32 60 46 83 62
278 285 278 318 0 5 4 12 9 14 13 5 97 187 120 263 12 39 28 99 36 135 12 56
14 1090 14 7120 1 6887 0 7057 -18 7140 -71 318 -262 596 -531 776 -54 35
-100 64 -104 64 -4 0 -19 8 -34 19 -15 10 -268 157 -562 327 -911 524 -978
562 -1232 710 -136 79 -250 144 -253 144 -3 0 -18 8 -33 19 -15 10 -119 72
-232 136 -113 65 -331 191 -485 280 -154 89 -300 174 -325 187 -25 14 -99 57
-165 95 -108 63 -341 198 -420 243 -16 10 -70 41 -120 70 -49 29 -108 62 -130
75 -35 19 -386 222 -812 468 -72 42 -147 85 -165 96 -18 10 -89 51 -158 91
-69 39 -143 82 -165 95 -22 12 -112 64 -200 115 -88 51 -198 114 -245 141 -47
27 -92 54 -100 59 -8 5 -80 46 -159 92 -79 46 -162 94 -185 107 -23 13 -72 42
-111 64 -208 119 -275 158 -445 257 -69 39 -253 146 -410 237 -157 90 -292
168 -300 173 -8 5 -127 74 -265 153 -438 252 -750 432 -1005 580 -45 26 -108
62 -140 80 -14 7 -123 71 -243 141 -120 69 -239 138 -265 153 -26 14 -101 58
-167 96 -108 63 -190 110 -287 165 -18 11 -120 70 -227 132 -107 61 -215 124
-240 138 -25 14 -75 42 -110 64 -34 21 -65 38 -67 38 -2 0 -44 25 -95 55 -50
30 -93 55 -95 55 -3 0 -21 11 -42 23 -20 13 -57 35 -82 49 -25 14 -85 49 -135
78 -49 29 -108 63 -130 75 -23 13 -124 72 -225 130 -102 59 -205 119 -230 133
-25 14 -125 72 -223 128 -258 150 -348 190 -532 231 -93 21 -345 25 -451 7z
m321 -3008 c169 -14 341 -72 513 -173 41 -24 75 -43 78 -43 2 0 28 -16 58 -35
30 -19 58 -35 61 -35 3 0 22 -11 43 -24 31 -19 345 -201 472 -274 19 -11 123
-70 230 -133 107 -62 224 -129 260 -149 36 -20 106 -61 155 -90 91 -53 129
-75 188 -108 17 -11 210 -122 427 -247 217 -126 413 -239 435 -251 22 -12 132
-75 245 -141 113 -66 372 -215 575 -333 204 -117 423 -244 487 -282 64 -37
121 -68 127 -68 6 0 11 -4 11 -10 0 -5 4 -10 9 -10 5 0 67 -34 136 -75 70 -41
129 -75 131 -75 2 0 49 -27 104 -60 55 -33 103 -60 105 -60 3 0 22 -11 43 -24
52 -33 236 -140 242 -141 3 0 19 -9 35 -19 17 -11 47 -30 67 -43 21 -12 40
-23 42 -23 3 0 66 -36 142 -80 75 -44 138 -80 139 -80 2 0 50 -28 107 -61 57
-34 119 -71 138 -81 19 -11 123 -71 230 -133 107 -62 211 -122 230 -132 20
-11 92 -53 160 -93 69 -40 145 -84 170 -98 25 -14 74 -42 109 -64 34 -21 65
-38 67 -38 2 0 27 -14 56 -31 54 -32 88 -52 156 -90 94 -54 301 -174 334 -195
21 -13 40 -24 43 -24 3 0 31 -16 61 -35 30 -19 56 -35 59 -35 2 0 68 -38 147
-84 79 -45 235 -136 348 -201 282 -162 459 -265 495 -287 17 -10 37 -21 45
-25 8 -4 60 -34 115 -66 55 -33 118 -70 140 -82 22 -12 175 -100 340 -195 165
-95 314 -181 330 -190 17 -9 65 -38 108 -64 43 -25 80 -46 82 -46 3 0 45 -25
96 -55 50 -30 93 -55 96 -55 2 0 39 -23 81 -51 150 -101 322 -298 404 -464 26
-51 75 -186 84 -227 14 -68 23 -119 29 -168 4 -30 7 -2521 7 -5535 0 -4225 -3
-5499 -12 -5560 -14 -94 -49 -219 -81 -290 -12 -27 -23 -52 -24 -55 -3 -14
-48 -94 -77 -137 -94 -142 -250 -292 -388 -372 -164 -96 -243 -141 -247 -141
-2 0 -16 -8 -31 -19 -15 -10 -283 -166 -597 -346 -313 -180 -606 -349 -650
-375 -44 -26 -100 -59 -125 -73 -25 -13 -160 -91 -300 -172 -140 -81 -268
-155 -285 -165 -164 -94 -457 -263 -525 -303 -47 -27 -98 -58 -115 -67 -24
-13 -336 -193 -520 -300 -16 -9 -165 -95 -330 -190 -165 -95 -343 -198 -395
-228 -52 -30 -135 -78 -185 -107 -49 -28 -150 -86 -223 -129 -74 -43 -153 -88
-175 -101 -23 -13 -177 -101 -342 -197 -165 -96 -307 -177 -315 -181 -8 -4
-24 -13 -35 -20 -55 -34 -469 -274 -535 -310 -30 -17 -98 -56 -150 -87 -52
-31 -102 -59 -110 -63 -8 -4 -31 -17 -50 -28 -32 -20 -426 -248 -531 -308 -79
-46 -333 -192 -349 -202 -8 -5 -98 -56 -200 -115 -102 -58 -210 -120 -240
-138 -30 -19 -75 -44 -100 -58 -25 -14 -148 -85 -275 -158 -216 -125 -465
-269 -840 -485 -88 -51 -257 -149 -375 -217 -315 -183 -375 -212 -525 -248
-111 -26 -155 -32 -271 -34 -86 -2 -219 14 -319 37 -90 22 -233 86 -376 169
-30 18 -191 112 -358 208 -166 96 -316 183 -334 194 -18 10 -95 54 -172 99
-77 44 -153 88 -170 97 -16 10 -133 77 -260 150 -126 73 -340 196 -475 275
-135 78 -265 153 -290 167 -55 31 -412 238 -460 267 -19 11 -42 24 -50 28 -8
4 -78 44 -155 89 -77 45 -159 92 -181 105 -23 13 -122 70 -220 127 -99 57
-186 107 -194 112 -8 5 -50 29 -93 54 -43 25 -79 46 -81 46 -2 0 -66 37 -142
82 -76 45 -157 91 -180 104 -22 12 -58 33 -80 46 -21 14 -64 38 -94 55 -30 17
-95 54 -145 83 -49 29 -110 64 -135 78 -25 14 -124 71 -220 127 -96 56 -209
121 -250 145 -41 23 -91 52 -110 63 -19 11 -55 31 -80 45 -25 13 -49 28 -55
32 -5 4 -71 42 -145 85 -74 43 -148 86 -165 95 -16 10 -62 36 -101 58 -39 22
-212 123 -385 223 -173 100 -333 192 -356 205 -23 13 -108 62 -188 109 -81 47
-151 85 -156 85 -5 0 -9 5 -9 10 0 6 -4 10 -10 10 -5 0 -118 63 -250 140 -132
77 -242 140 -244 140 -2 0 -44 24 -93 54 -49 29 -109 64 -133 78 -25 14 -148
85 -275 158 -205 119 -283 163 -397 229 -47 27 -326 188 -508 294 -85 49 -170
98 -189 109 -89 50 -519 299 -623 360 -213 124 -339 236 -442 393 -47 71 -66
104 -111 195 -32 65 -78 235 -90 340 -9 67 -9 11021 -1 11070 4 19 8 46 11 60
3 14 7 39 10 56 8 50 54 184 87 254 110 230 266 396 503 535 50 29 106 62 125
74 19 11 41 24 49 28 8 3 64 35 125 71 61 35 138 80 171 99 33 18 67 38 75 44
16 10 407 236 480 277 46 26 336 193 515 297 55 32 118 68 140 80 22 12 106
61 187 109 81 47 152 86 158 86 5 0 10 5 10 10 0 6 4 10 9 10 5 0 42 19 83 43
40 24 93 55 118 69 41 23 465 267 500 288 32 19 476 277 519 301 66 37 580
333 618 355 17 11 82 48 144 84 63 36 121 70 130 75 9 6 38 22 65 38 27 15 56
32 64 37 12 8 293 171 420 242 19 11 64 37 100 58 36 21 81 47 100 58 19 10
85 48 146 84 61 36 117 68 125 72 8 4 23 12 34 19 11 7 74 43 140 81 66 39
215 125 331 193 117 67 227 131 245 141 46 26 305 175 654 377 160 92 308 178
330 190 22 13 81 47 130 76 50 29 117 68 150 86 33 19 76 43 95 55 57 33 431
249 480 276 25 14 61 35 80 47 19 12 42 24 50 28 8 4 24 13 35 19 40 27 102
62 155 91 30 16 62 36 71 43 8 8 18 14 21 14 2 0 58 31 124 68 193 111 520
300 556 321 18 11 69 40 113 66 44 25 100 57 125 71 25 15 83 48 130 75 47 27
92 54 100 59 68 44 273 124 350 135 24 4 47 8 51 11 4 2 44 7 90 10 46 4 85 8
87 9 1 1 15 1 30 0 15 -2 63 -6 107 -9z"/>
<path d="M14294 25611 c-121 -70 -244 -141 -272 -159 -29 -18 -54 -32 -56 -32
-1 0 -70 -39 -152 -86 -82 -48 -170 -98 -195 -113 -92 -53 -334 -193 -349
-202 -19 -12 -166 -97 -205 -119 -16 -9 -84 -48 -151 -87 -66 -38 -127 -72
-135 -76 -8 -4 -28 -15 -44 -26 -52 -31 -540 -313 -600 -346 -11 -6 -39 -23
-62 -38 -24 -15 -45 -27 -47 -27 -2 0 -37 -19 -78 -43 -40 -24 -93 -55 -118
-69 -25 -14 -146 -84 -270 -156 -124 -71 -244 -140 -266 -153 -23 -13 -133
-77 -245 -142 -112 -65 -211 -122 -219 -127 -8 -5 -42 -24 -75 -44 -262 -152
-706 -406 -711 -406 -2 0 -10 -5 -17 -10 -11 -10 -694 -406 -782 -453 -22 -12
-41 -25 -43 -29 -2 -5 -7 -8 -12 -8 -5 0 -54 -27 -110 -60 -56 -33 -103 -60
-106 -60 -2 0 -32 -17 -66 -38 -35 -21 -83 -50 -108 -64 -51 -28 -358 -205
-659 -380 -112 -65 -208 -118 -213 -118 -4 0 -8 -4 -8 -8 0 -4 -12 -13 -27
-19 -16 -7 -46 -23 -68 -36 -40 -24 -134 -78 -359 -208 -65 -38 -121 -69 -124
-69 -3 0 -13 -6 -21 -14 -9 -7 -41 -27 -71 -43 -30 -17 -125 -71 -210 -120
-164 -95 -664 -384 -715 -413 -16 -9 -75 -43 -130 -75 -55 -32 -111 -65 -125
-72 -70 -39 -102 -60 -102 -69 -1 -7 174 -112 397 -239 22 -12 56 -31 75 -42
71 -41 737 -426 800 -463 50 -29 761 -440 935 -540 17 -9 118 -68 225 -130
107 -62 213 -123 235 -135 22 -13 81 -47 130 -76 50 -28 108 -62 130 -74 49
-27 334 -192 355 -205 8 -6 25 -15 38 -22 26 -13 6 -23 322 160 118 69 231
134 250 145 129 73 157 89 170 97 34 21 216 127 230 134 8 4 24 12 35 19 32
19 176 102 219 126 61 35 342 198 446 260 52 31 99 58 105 60 5 2 107 60 225
129 118 69 235 136 260 150 25 13 65 37 90 52 25 15 153 89 285 165 132 76
254 146 270 156 17 10 57 33 90 52 33 18 119 68 192 110 72 42 147 85 165 96
55 31 472 272 643 371 88 51 180 104 205 118 25 14 74 42 109 64 34 21 65 38
67 38 2 0 37 20 77 44 39 24 90 53 112 65 22 12 47 26 55 31 8 5 40 24 70 41
30 18 154 89 275 159 121 69 229 132 240 139 20 13 20 22 20 1952 0 1066 0
1939 0 1938 0 0 -99 -57 -221 -128z"/>
<path d="M15505 23796 c0 -1064 2 -1936 5 -1938 5 -5 128 -75 200 -116 25 -13
50 -28 55 -32 6 -4 30 -19 55 -32 25 -14 86 -49 135 -78 50 -29 110 -64 135
-78 25 -14 62 -36 82 -49 21 -12 39 -23 42 -23 2 0 33 -17 67 -39 35 -21 96
-55 134 -76 39 -21 77 -43 85 -49 8 -6 26 -17 39 -24 13 -8 40 -23 60 -34 20
-11 108 -62 196 -113 88 -51 221 -127 295 -170 241 -139 392 -226 424 -246 17
-10 37 -22 45 -26 8 -3 114 -64 234 -135 121 -70 222 -128 224 -128 2 0 36
-19 76 -43 39 -24 151 -89 247 -144 96 -56 330 -191 520 -300 190 -110 368
-212 395 -227 28 -16 102 -59 165 -96 96 -56 405 -235 540 -312 115 -66 456
-263 575 -333 78 -45 150 -85 161 -89 21 -6 44 4 119 50 22 13 51 30 65 36 14
7 32 17 40 24 8 6 40 25 70 41 30 17 111 63 180 103 69 40 213 123 320 185
107 62 219 127 248 144 29 17 56 31 59 31 4 0 14 6 22 14 9 7 41 27 71 43 49
27 221 126 535 308 55 32 157 91 228 131 70 41 184 107 255 148 70 40 170 98
222 128 52 30 169 98 260 150 91 53 181 105 200 117 19 11 41 24 49 28 8 3 64
35 125 71 176 103 179 104 216 123 19 10 46 27 59 37 l24 20 -24 13 c-13 7
-32 18 -41 24 -9 5 -41 23 -70 39 -29 15 -60 34 -69 42 -8 8 -18 14 -22 14 -3
0 -67 36 -143 80 -75 44 -138 80 -140 80 -3 0 -21 11 -42 24 -31 20 -210 124
-332 194 -19 11 -107 61 -195 112 -88 51 -175 101 -194 112 -111 63 -537 310
-721 416 -118 69 -240 139 -270 155 -30 16 -59 33 -65 37 -5 4 -26 17 -45 28
-19 10 -80 45 -135 77 -55 32 -199 115 -320 185 -237 137 -425 245 -770 445
-121 70 -240 139 -265 153 -25 14 -58 34 -75 44 -16 10 -37 21 -45 25 -8 4
-58 32 -110 63 -88 52 -131 77 -220 128 -19 10 -123 70 -230 132 -107 62 -211
122 -230 133 -19 11 -91 52 -160 92 -183 107 -733 425 -872 503 -101 58 -475
274 -488 282 -8 6 -21 13 -29 17 -7 3 -86 49 -175 101 -88 52 -179 105 -201
117 -39 21 -99 56 -580 334 -126 74 -248 144 -270 156 -22 13 -107 62 -190
110 -82 48 -166 97 -185 107 -19 11 -60 34 -90 51 -67 39 -43 25 -307 177
-119 69 -221 126 -227 128 -8 2 -11 -547 -11 -1932z"/>
<path d="M14980 20986 c-14 -7 -79 -44 -145 -83 -125 -72 -494 -286 -555 -321
-19 -10 -75 -43 -125 -72 -49 -29 -106 -62 -125 -73 -202 -114 -440 -254 -462
-269 -16 -11 -28 -16 -28 -13 0 3 -12 -2 -27 -13 -30 -20 -192 -115 -283 -165
-30 -16 -62 -35 -70 -42 -8 -7 -22 -15 -30 -18 -8 -4 -37 -20 -65 -36 -27 -16
-72 -42 -100 -56 -27 -15 -57 -33 -66 -41 -8 -8 -18 -14 -22 -14 -3 0 -129
-71 -279 -158 -150 -87 -365 -212 -478 -277 -113 -65 -218 -126 -235 -136 -16
-11 -36 -22 -44 -26 -8 -3 -64 -35 -125 -71 -250 -146 -374 -217 -426 -245
-30 -16 -62 -36 -71 -43 -8 -8 -18 -14 -21 -14 -3 0 -43 -22 -89 -48 -46 -27
-174 -101 -284 -164 -110 -64 -216 -125 -235 -136 -92 -52 -285 -164 -288
-167 -2 -1 64 -41 145 -87 81 -47 207 -119 278 -160 145 -84 867 -501 1015
-586 126 -72 159 -91 195 -113 17 -10 68 -40 114 -66 47 -26 101 -57 120 -68
20 -11 68 -39 106 -62 39 -22 144 -84 235 -136 91 -52 236 -136 322 -186 86
-50 173 -100 193 -111 40 -23 279 -161 477 -276 70 -41 130 -74 134 -74 4 0
22 -11 40 -25 18 -14 35 -25 39 -25 3 0 35 -18 71 -40 36 -22 68 -40 70 -40 1
0 67 -38 146 -84 79 -45 163 -94 188 -108 25 -14 144 -83 265 -153 121 -70
236 -137 255 -147 19 -11 92 -54 162 -94 69 -41 131 -74 137 -74 6 0 113 59
238 131 126 72 248 143 273 157 25 14 77 44 115 67 39 22 77 44 85 48 8 4 29
15 45 26 17 10 91 53 165 96 183 105 178 103 320 185 69 40 145 84 170 98 25
14 77 44 115 67 39 23 77 45 85 49 8 4 24 12 35 19 11 7 94 55 185 107 91 52
173 100 182 105 100 59 225 131 233 134 5 2 21 12 35 21 14 9 48 30 75 45 76
42 168 95 185 105 25 16 214 126 230 133 8 4 24 13 35 20 11 7 54 31 95 55 41
23 82 47 90 52 13 9 125 73 235 135 22 13 117 68 212 123 94 56 189 110 210
122 21 11 45 25 53 30 14 9 250 146 359 207 24 14 168 97 320 185 152 89 289
167 304 175 16 9 27 16 25 18 -2 2 -26 16 -54 33 -47 27 -77 45 -194 110 -25
14 -89 52 -143 84 -55 32 -100 58 -102 58 -2 0 -40 22 -84 50 -45 27 -81 46
-81 43 0 -3 -8 1 -17 9 -15 13 -99 62 -268 158 -16 9 -131 76 -255 147 -124
72 -430 248 -680 392 -250 145 -480 277 -510 296 -30 18 -75 44 -100 57 -25
14 -144 83 -265 153 -121 70 -236 137 -255 148 -19 10 -134 77 -255 147 -121
70 -240 138 -265 152 -53 30 -420 242 -464 269 -17 10 -53 30 -79 44 -27 14
-77 44 -113 65 -35 22 -66 40 -68 40 -3 0 -98 55 -156 90 -49 30 -297 170
-301 170 -2 0 -15 -6 -29 -14z"/>
<path d="M5459 19918 c-3 -52 -3 -9888 0 -9888 2 0 88 49 190 109 102 60 202
118 221 129 19 11 190 110 379 221 189 110 346 201 348 201 2 0 16 9 31 19 23
16 335 198 444 259 35 20 93 54 133 79 11 7 49 29 85 49 36 20 99 57 140 82
41 25 84 50 95 56 11 6 240 139 508 296 268 157 511 298 539 314 29 16 96 55
148 87 l95 57 0 3006 0 3007 -55 32 c-30 17 -57 31 -60 32 -3 0 -16 8 -30 17
-32 20 -140 83 -210 121 -30 17 -83 48 -118 69 -34 21 -64 38 -67 38 -2 0 -37
20 -77 44 -70 42 -295 172 -368 214 -30 17 -387 222 -807 465 -72 42 -147 85
-165 95 -18 11 -134 78 -258 150 -124 71 -246 141 -270 155 -25 14 -119 68
-209 121 -90 53 -165 96 -168 96 -2 0 -29 16 -59 35 -30 19 -56 35 -59 35 -2
0 -85 47 -184 105 -99 58 -182 105 -185 105 -3 0 -6 -6 -7 -12z"/>
<path d="M24508 19905 c-20 -14 -39 -25 -42 -25 -2 0 -44 -23 -93 -51 -79 -47
-217 -126 -313 -181 -19 -11 -75 -44 -125 -73 -49 -29 -106 -62 -125 -73 -19
-11 -64 -36 -100 -57 -36 -21 -81 -46 -100 -57 -19 -11 -75 -44 -125 -73 -49
-29 -166 -96 -260 -150 -93 -54 -183 -106 -200 -115 -16 -10 -75 -44 -130 -75
-55 -32 -125 -72 -155 -90 -79 -46 -439 -253 -620 -357 -85 -49 -162 -93 -170
-98 -8 -5 -134 -78 -279 -162 -146 -84 -290 -168 -320 -186 -31 -17 -74 -42
-96 -53 -22 -12 -42 -25 -45 -29 -3 -5 -5 -1359 -5 -3010 l0 -3002 180 -105
c99 -58 200 -116 225 -130 25 -13 59 -32 75 -42 115 -68 824 -477 842 -485 13
-6 23 -14 23 -18 0 -5 5 -8 11 -8 6 0 63 -31 127 -69 64 -37 137 -80 162 -93
44 -25 189 -110 220 -128 58 -36 153 -90 156 -90 2 0 43 -24 92 -53 49 -30 97
-57 106 -60 9 -4 41 -22 71 -42 31 -19 57 -35 59 -35 3 0 37 -19 78 -43 40
-24 93 -55 118 -69 25 -14 155 -89 289 -167 134 -77 245 -141 248 -141 4 0 82
-47 129 -78 10 -7 33 -19 49 -28 17 -8 44 -23 60 -34 17 -10 32 -19 35 -19 4
-1 5 9809 1 9867 -1 18 -12 15 -53 -13z"/>
<path d="M9805 14708 l0 -2720 215 -124 c118 -68 222 -128 230 -133 8 -6 58
-35 110 -64 52 -30 181 -104 285 -165 105 -60 309 -178 454 -262 145 -83 278
-160 295 -171 17 -10 38 -22 46 -26 8 -4 49 -27 90 -51 41 -25 91 -54 110 -65
19 -11 168 -96 330 -190 162 -93 310 -178 328 -188 60 -35 96 -56 290 -168
106 -61 207 -120 225 -130 55 -32 160 -92 197 -114 19 -11 46 -27 60 -34 14
-8 39 -22 55 -32 17 -10 46 -27 65 -38 19 -11 185 -106 367 -212 183 -105 347
-199 365 -210 18 -10 67 -38 108 -63 41 -24 82 -47 90 -51 8 -4 29 -15 45 -26
65 -39 345 -200 346 -198 1 1 2 1225 3 2719 l1 2716 -245 142 c-135 77 -258
148 -275 158 -16 9 -69 41 -118 70 -48 28 -90 52 -92 52 -3 0 -44 23 -147 85
-9 5 -34 20 -55 31 -21 12 -135 77 -253 146 -118 69 -321 186 -450 260 -129
75 -251 145 -270 157 -19 11 -41 24 -49 28 -18 8 -471 270 -491 283 -8 6 -22
13 -30 17 -8 3 -39 21 -68 40 -29 18 -54 33 -57 33 -3 0 -50 27 -106 60 -55
33 -102 60 -104 60 -2 0 -40 22 -84 50 -45 27 -81 46 -81 43 0 -3 -8 1 -17 9
-10 9 -49 33 -88 55 -90 51 -401 230 -440 254 -16 10 -43 25 -60 34 -16 9 -39
21 -50 28 -11 6 -133 77 -270 156 -138 80 -347 201 -465 269 -118 69 -240 138
-270 155 -30 16 -60 33 -65 38 -7 5 -10 -898 -10 -2713z"/>
<path d="M19975 17289 c-121 -71 -231 -134 -245 -142 -14 -7 -272 -157 -575
-332 -302 -175 -566 -327 -585 -338 -71 -40 -549 -317 -582 -337 -18 -11 -40
-23 -48 -27 -8 -4 -78 -43 -155 -88 -275 -160 -703 -407 -774 -448 -20 -11
-49 -28 -66 -38 -16 -11 -37 -22 -45 -26 -18 -8 -208 -119 -230 -133 -8 -6
-22 -13 -30 -17 -8 -3 -39 -21 -68 -40 -29 -18 -54 -33 -57 -33 -3 0 -50 -27
-106 -60 -55 -33 -103 -60 -106 -60 -3 0 -17 -8 -31 -19 -15 -10 -47 -29 -72
-43 -25 -14 -106 -60 -180 -103 -166 -96 -191 -110 -365 -209 -77 -44 -142
-82 -145 -84 -7 -5 -7 -5442 0 -5442 3 0 19 9 35 21 17 11 39 25 50 30 11 5
29 15 40 22 25 15 168 98 215 125 19 10 123 70 230 132 107 62 209 120 225
130 84 48 294 170 325 189 19 11 42 24 50 28 8 4 58 32 110 63 52 31 102 59
110 63 8 4 24 13 35 20 24 15 213 124 263 153 42 23 487 280 722 416 85 50
169 98 185 108 438 252 636 366 660 379 17 9 32 19 33 24 2 4 8 7 13 7 5 0 46
22 91 49 82 48 444 258 503 291 31 18 268 154 485 280 69 40 145 84 170 97 25
14 70 40 100 58 l55 33 0 2713 c0 1799 -3 2713 -10 2715 -6 1 -109 -56 -230
-127z"/>
<path d="M9207 11070 c-54 -33 -100 -60 -102 -60 -2 0 -40 -22 -85 -50 -45
-27 -83 -50 -85 -50 -1 0 -65 -37 -141 -81 -77 -45 -152 -90 -169 -99 -16 -9
-55 -32 -85 -50 -30 -18 -80 -46 -110 -63 -30 -16 -62 -36 -71 -43 -8 -8 -18
-14 -21 -14 -3 0 -68 -37 -144 -81 -77 -45 -152 -90 -169 -99 -16 -10 -84 -49
-150 -87 -66 -39 -253 -147 -415 -242 -162 -94 -302 -175 -310 -180 -19 -12
-392 -230 -429 -251 -14 -8 -82 -48 -151 -89 -107 -63 -230 -134 -357 -208
-17 -10 -57 -34 -90 -53 -32 -19 -76 -44 -98 -56 -21 -12 -40 -25 -42 -30 -2
-7 256 -160 679 -402 22 -12 105 -61 185 -107 80 -47 147 -85 149 -85 1 0 55
-31 120 -70 64 -38 118 -70 120 -70 1 0 80 -45 174 -100 94 -55 173 -100 175
-100 2 0 95 -54 155 -90 14 -8 155 -90 225 -130 17 -10 86 -50 155 -90 147
-85 179 -104 223 -129 17 -10 145 -84 283 -163 138 -80 271 -157 295 -171 24
-13 85 -48 134 -77 50 -29 108 -62 130 -75 71 -40 530 -305 545 -315 8 -5 38
-22 65 -38 28 -15 190 -108 360 -207 171 -98 319 -183 330 -189 11 -6 31 -19
45 -27 14 -9 104 -61 200 -117 96 -55 290 -166 430 -248 140 -81 280 -161 310
-177 30 -16 62 -35 70 -41 8 -6 24 -16 35 -22 73 -40 121 -67 130 -74 6 -4 30
-19 55 -32 25 -14 133 -76 240 -138 107 -62 211 -122 230 -133 19 -10 76 -43
125 -72 50 -29 106 -62 125 -73 60 -34 233 -134 265 -152 17 -10 102 -59 190
-110 88 -50 165 -95 170 -99 6 -5 35 -22 65 -38 30 -17 84 -47 120 -68 36 -21
79 -45 95 -55 17 -9 262 -151 545 -315 283 -163 530 -306 548 -316 17 -10 33
-18 33 -16 1 1 2 873 3 1938 l1 1936 -94 54 c-52 30 -117 68 -146 84 -69 39
-255 147 -277 160 -9 5 -29 17 -45 26 -15 9 -45 25 -65 37 -37 21 -81 46 -129
74 -13 7 -27 18 -31 23 -4 6 -8 6 -8 1 0 -5 -8 -2 -17 6 -17 13 -104 66 -198
118 -22 12 -170 98 -330 190 -159 92 -312 180 -340 195 -27 16 -89 52 -138 81
-49 30 -91 54 -93 54 -2 0 -41 22 -86 49 -46 27 -99 58 -118 69 -87 49 -247
141 -515 297 -159 92 -308 178 -330 190 -203 116 -272 156 -282 165 -7 5 -14
10 -17 10 -2 0 -87 48 -188 106 -100 58 -289 167 -418 241 -129 75 -298 173
-375 218 -77 44 -147 84 -155 88 -8 4 -28 15 -45 26 -86 52 -763 441 -768 441
-1 0 -46 -27 -100 -60z"/>
<path d="M20665 11106 c-185 -108 -366 -212 -395 -229 -47 -26 -414 -238 -520
-300 -47 -27 -101 -59 -120 -70 -19 -11 -125 -71 -235 -135 -110 -63 -283
-163 -385 -222 -102 -59 -230 -133 -285 -165 -55 -32 -113 -66 -130 -75 -379
-217 -515 -296 -537 -311 -14 -11 -28 -19 -31 -19 -3 0 -72 -39 -154 -86 -81
-48 -162 -95 -180 -105 -17 -10 -134 -77 -260 -150 -125 -72 -241 -139 -258
-149 -16 -9 -133 -77 -260 -150 -126 -73 -250 -144 -275 -158 -25 -14 -73 -43
-108 -64 -34 -21 -64 -38 -67 -38 -3 0 -34 -18 -70 -40 -36 -22 -68 -40 -71
-40 -2 0 -17 -8 -32 -19 -15 -10 -65 -40 -111 -66 -130 -73 -139 -78 -257
-147 -61 -36 -117 -68 -125 -71 -8 -4 -77 -44 -154 -89 l-140 -83 0 -1928 c0
-1061 2 -1933 5 -1937 3 -5 26 4 50 19 25 15 142 84 260 151 238 137 679 391
780 450 36 21 142 82 235 136 209 120 315 182 335 194 8 6 22 13 30 17 8 4 43
24 78 45 34 21 65 38 67 38 3 0 24 11 46 26 22 14 56 34 75 45 20 11 95 54
167 96 73 41 238 137 367 211 129 74 268 155 308 179 41 24 75 43 77 43 3 0
180 104 205 120 8 6 22 13 30 17 8 4 38 20 65 36 41 24 220 128 465 269 454
262 1154 666 1180 683 19 12 40 24 45 26 10 4 262 149 295 169 8 6 98 58 200
116 102 58 230 132 285 164 55 32 119 69 141 82 38 21 378 218 414 238 8 5 49
29 90 53 41 24 107 62 145 84 72 41 406 233 575 331 136 79 372 215 452 261
18 10 74 42 123 71 50 29 106 61 125 72 19 11 64 37 100 58 36 21 83 48 104
60 44 24 321 185 406 235 30 17 94 54 142 81 48 27 88 52 88 55 0 4 -73 49
-162 100 -90 52 -170 99 -180 104 -9 6 -29 17 -45 26 -15 8 -87 50 -160 92
-72 42 -136 77 -142 77 -6 0 -11 4 -11 8 0 4 -15 15 -32 23 -18 9 -138 77
-267 152 -129 76 -235 137 -237 137 -1 0 -31 17 -65 38 -35 22 -84 50 -109 64
-25 14 -106 60 -180 103 -74 43 -152 88 -172 99 -46 26 -274 158 -348 201
-204 120 -421 245 -426 245 -2 0 -21 11 -42 24 -50 31 -770 446 -774 446 -2
-1 -21 -11 -43 -24z"/>
</g>
</svg>
